<?xml version="1.0" encoding="UTF-8" standalone="no"?>
<svg
   xmlns:dc="http://purl.org/dc/elements/1.1/"
   xmlns:cc="http://creativecommons.org/ns#"
   xmlns:rdf="http://www.w3.org/1999/02/22-rdf-syntax-ns#"
   xmlns:svg="http://www.w3.org/2000/svg"
   xmlns="http://www.w3.org/2000/svg"
   xmlns:sodipodi="http://sodipodi.sourceforge.net/DTD/sodipodi-0.dtd"
   xmlns:inkscape="http://www.inkscape.org/namespaces/inkscape"
   inkscape:version="1.0beta2 (4377acc, 2020-03-27)"
   inkscape:export-ydpi="400"
   inkscape:export-xdpi="400"
   inkscape:export-filename="C:\Instalados\xampp\htdocs\Gazetteer\icons\info.png"
   sodipodi:docname="currency.svg"
   id="svg8"
   version="1.1"
   viewBox="0 0 6 6"
   height="6mm"
   width="6mm">
  <defs
     id="defs2" />
  <sodipodi:namedview
     inkscape:window-maximized="1"
     inkscape:window-y="-11"
     inkscape:window-x="-11"
     inkscape:window-height="986"
     inkscape:window-width="1920"
     showgrid="false"
     inkscape:document-rotation="0"
     inkscape:current-layer="layer1"
     inkscape:document-units="mm"
     inkscape:cy="19.387315"
     inkscape:cx="-14.580416"
     inkscape:zoom="6.9427785"
     inkscape:pageshadow="2"
     inkscape:pageopacity="0.0"
     borderopacity="1.0"
     bordercolor="#666666"
     pagecolor="#ffffff"
     id="base" />
  <metadata
     id="metadata5">
    <rdf:RDF>
      <cc:Work
         rdf:about="">
        <dc:format>image/svg+xml</dc:format>
        <dc:type
           rdf:resource="http://purl.org/dc/dcmitype/StillImage" />
        <dc:title></dc:title>
      </cc:Work>
    </rdf:RDF>
  </metadata>
  <g
     id="layer1"
     inkscape:groupmode="layer"
     inkscape:label="Layer 1">
    <path
       inkscape:connector-curvature="0"
       d="M 3.7014749,4.7900945 C 3.6292249,4.7739417 3.2450079,4.6523701 2.8476499,4.5199316 2.2210239,4.3110793 2.0424149,4.2789571 1.5012369,4.2777836 1.1580649,4.2770428 0.75167789,4.301194 0.59815489,4.3314626 l -0.279136,0.055032 V 2.8766619 1.366828 L 0.65515589,1.28619 C 1.1795069,1.1604005 2.1500569,1.23755 2.7819719,1.4552542 c 0.448681,0.1545781 0.630957,0.1810816 1.247896,0.1814559 0.66827,3.651e-4 0.943033,-0.047541 1.428513,-0.2492758 0.107556,-0.044695 0.114936,0.051277 0.114936,1.4946275 V 4.4244509 L 5.2613439,4.5574106 C 4.6630719,4.8123851 4.1461099,4.8895 3.7014749,4.7900945 Z m -0.159146,-1.460954 c 0.36277,-0.3627681 0.199155,-0.9691876 -0.294949,-1.0931997 -0.420986,-0.1056617 -0.826641,0.2098969 -0.826641,0.6430389 0,0.5840365 0.704827,0.866925 1.12159,0.4501608 z"
       style="fill:#000000;stroke-width:0.0656788"
       id="path932" />
  </g>
</svg>
