<?xml version="1.0" encoding="UTF-8" standalone="no"?>
<svg
   xmlns:dc="http://purl.org/dc/elements/1.1/"
   xmlns:cc="http://creativecommons.org/ns#"
   xmlns:rdf="http://www.w3.org/1999/02/22-rdf-syntax-ns#"
   xmlns:svg="http://www.w3.org/2000/svg"
   xmlns="http://www.w3.org/2000/svg"
   xmlns:sodipodi="http://sodipodi.sourceforge.net/DTD/sodipodi-0.dtd"
   xmlns:inkscape="http://www.inkscape.org/namespaces/inkscape"
   inkscape:version="1.0beta2 (4377acc, 2020-03-27)"
   inkscape:export-ydpi="400"
   inkscape:export-xdpi="400"
   inkscape:export-filename="C:\Instalados\xampp\htdocs\Gazetteer\icons\info.png"
   sodipodi:docname="demogr.svg"
   id="svg8"
   version="1.1"
   viewBox="0 0 6 6"
   height="6mm"
   width="6mm">
  <defs
     id="defs2" />
  <sodipodi:namedview
     inkscape:window-maximized="1"
     inkscape:window-y="-11"
     inkscape:window-x="-11"
     inkscape:window-height="986"
     inkscape:window-width="1920"
     showgrid="false"
     inkscape:document-rotation="0"
     inkscape:current-layer="layer1"
     inkscape:document-units="mm"
     inkscape:cy="30.691995"
     inkscape:cx="53.292826"
     inkscape:zoom="5.6975395"
     inkscape:pageshadow="2"
     inkscape:pageopacity="0.0"
     borderopacity="1.0"
     bordercolor="#666666"
     pagecolor="#ffffff"
     id="base" />
  <metadata
     id="metadata5">
    <rdf:RDF>
      <cc:Work
         rdf:about="">
        <dc:format>image/svg+xml</dc:format>
        <dc:type
           rdf:resource="http://purl.org/dc/dcmitype/StillImage" />
        <dc:title></dc:title>
      </cc:Work>
    </rdf:RDF>
  </metadata>
  <g
     id="layer1"
     inkscape:groupmode="layer"
     inkscape:label="Layer 1">
    <g
       transform="matrix(0.03514705,0,0,0.03514705,1.6571519,-4.5152958)"
       id="g882">
      <path
         style="fill:#000000;stroke-width:0.264583"
         d="m 104.97358,262.38855 c -0.11239,-5.21121 -0.27604,-7.90668 -0.53736,-8.85093 -0.60873,-2.19961 -1.99751,-4.51058 -3.60306,-5.99556 -2.403667,-2.22318 -5.231567,-3.50637 -20.120437,-9.12988 -10.5474,-3.98374 -13.08744,-5.00446 -16.27187,-6.53889 -2.91412,-1.40416 -5.15938,-3.02086 -5.15938,-3.71499 0,-0.57716 2.10456,-4.44574 4.22403,-7.76456 1.05942,-1.65891 2.16521,-3.56391 2.45731,-4.23333 0.29211,-0.66942 1.69197,-3.00307 3.1108,-5.18588 4.45327,-6.85115 5.07779,-8.58089 5.11071,-14.15521 0.0179,-3.03632 -0.0491,-3.51323 -0.81829,-5.82083 -0.86568,-2.5971 -1.39679,-5.61075 -1.90758,-10.82401 -0.86902,-8.8695 -3.76866,-15.78851 -8.86753,-21.15935 -2.26715,-2.38808 -3.98329,-3.71595 -7.34434,-5.68273 -1.41883,-0.83026 -2.57969,-1.61308 -2.57969,-1.7396 0,-0.8726 7.17396,-1.37398 11.86173,-0.829 7.17308,0.83392 13.5105,4.57914 16.87326,9.97157 2.40417,3.85527 3.62506,8.7371 4.07974,16.31326 0.334,5.56529 0.55235,6.56255 1.75935,8.03554 1.14553,1.39796 1.33989,2.6143 0.89926,5.62776 -0.58787,4.02048 -2.00297,7.3375 -3.97682,9.32175 -0.88606,0.89074 -1.86462,2.45484 -3.40014,5.43467 -1.18581,2.30119 -3.01129,5.55304 -4.05664,7.22633 -2.98789,4.78276 -3.1786,5.30974 -3.33698,9.22126 l -0.13549,3.34609 0.90098,1.19062 c 2.24094,2.96137 7.38635,5.42483 27.949767,13.38146 10.71091,4.14438 14.23245,5.66441 15.3614,6.63056 l 0.96954,0.82972 v 9.8859 c 0,10.7855 -0.007,10.84315 -1.54001,11.97877 -0.69069,0.51179 -1.15561,0.55928 -6.24345,0.63782 l -5.4972,0.0849 z"
         id="path873"
         inkscape:connector-curvature="0" />
      <path
         style="fill:#000000;stroke-width:0.264583"
         d="m -38.853827,269.49865 c -0.49551,-0.17368 -1.24231,-0.73983 -1.65954,-1.2581 -0.62529,-0.7767 -0.80373,-1.33469 -1.01529,-3.175 -0.3339,-2.90438 -0.33246,-13.94654 0.002,-15.9896 0.4763,-2.90877 0.861,-3.16665 9.72708,-6.52048 7.88091,-2.98117 18.79403,-7.33012 24.8916303,-9.91948 8.86248,-3.76348 10.47503,-5.21536 10.81599,-9.73831 0.24798,-3.28942 -0.57682,-5.52949 -4.14655998,-11.26169 -1.04217002,-1.67349 -2.66082002,-4.59053 -3.59700002,-6.4823 -1.07363,-2.16951 -2.29635,-4.16555 -3.31135,-5.40563 -2.61526,-3.19521 -3.5767203,-5.57776 -3.8619603,-9.57013 -0.21242,-2.97309 0.009,-4.0203 1.1055703,-5.23432 1.2673,-1.40275 1.45102,-2.06926 1.45358,-5.27329 0.009,-10.69895 2.0811,-17.14278 7.18726,-22.34629 2.84772,-2.90202 7.29609,-5.40296 11.14389,-6.26527 3.2909697,-0.73752 13.6566997,-0.53663 14.6452997,0.28383 0.48528,0.40275 0.45245,0.76215 -0.0696,0.76215 -1.23639,0 -7.74811,4.72483 -10.27874,7.45815 -3.33965,3.60712 -6.4811397,9.13597 -7.5371597,13.26495 -0.28567,1.11695 -0.63717,3.89092 -0.79976,6.31142 -0.35928,5.34853 -0.57384,6.58629 -1.87812,10.83421 -1.60191,5.21726 -1.66447,5.65272 -1.1994,8.3477 0.22173,1.28488 0.61101,2.99063 0.86507,3.79058 0.76491,2.40848 3.71478,7.92773 8.2721797,15.47736 4.40292,7.2938 6.10514,10.38984 6.10514,11.10423 0,1.1317 -4.22581,3.07823 -18.12394968,8.3484 -15.86286032,6.01518 -21.11263032,8.44886 -24.06904032,11.15788 -2.99384,2.7433 -3.55686,4.80318 -3.57275,13.07124 -0.004,2.05131 -0.0845,4.81952 -0.17908,6.15156 l -0.17192,2.4219 -4.92131,-0.0149 c -3.09498,-0.009 -5.25566,-0.13213 -5.82225,-0.33073 z"
         id="path871"
         inkscape:connector-curvature="0" />
      <path
         style="fill:#000000;stroke-width:0.264583"
         d="m -18.164027,275.85077 c -0.67505,-0.73233 -1.18621,-1.59054 -1.31774,-2.21239 -0.11818,-0.55876 -0.21284,-4.945 -0.21034,-9.74719 0.004,-8.17298 0.0381,-8.7981 0.52917,-9.77687 0.74566,-1.48616 1.94337,-2.04866 15.6058703,-7.32928 8.98536,-3.47288 16.9590297,-6.74224 22.2493897,-9.1227 5.62418,-2.53067 6.8442,-4.1514 6.84485,-9.09302 2.6e-4,-2.58082 -0.0604,-2.90713 -0.8551,-4.59451 -0.4705,-0.99901 -1.72975,-3.20166 -2.79833,-4.89479 -1.06858,-1.69313 -2.85739,-4.86435 -3.97511,-7.04716 -1.21431,-2.37142 -2.67066,-4.76179 -3.61849,-5.93914 -2.6068,-3.23807 -3.67765,-6.21459 -3.68741,-10.24936 -0.005,-2.22686 0.27097,-3.094 1.33898,-4.20157 1.0643,-1.10373 1.30226,-2.12253 1.30226,-5.57546 0,-8.01764 1.34867,-13.77108 4.28387,-18.27507 4.45006,-6.82849 12.03153,-10.65349 21.11613,-10.65349 10.28757,0 18.54325,4.86947 22.47298,13.25528 1.70469,3.63771 2.32356,6.98584 2.80599,15.18048 0.21952,3.72869 0.52822,5.1315 1.31004,5.95312 0.94509,0.99321 1.19224,1.91767 1.19224,4.45955 0,4.02269 -1.37266,7.69467 -4.0414,10.81109 -0.87828,1.02561 -2.24509,3.25661 -3.6315,5.92761 -1.22274,2.35566 -2.98962,5.48512 -3.92641,6.95436 -2.60929,4.09233 -2.89369,4.84886 -3.10566,8.26101 -0.10058,1.61911 -0.10446,3.36177 -0.009,3.87258 0.21657,1.15441 1.83717,3.03189 3.58545,4.15375 2.63593,1.69148 13.28915,6.17096 28.98753,12.18872 6.87972,2.63725 11.43395,4.67222 11.99772,5.36097 0.77157,0.94262 1.00723,19.34666 0.27275,21.30076 -0.33589,0.89365 -1.72026,1.34948 -5.06156,1.66659 -1.93238,0.1834 -21.48293,0.33152 -55.76514,0.4225 l -52.78955,0.14009 -1.10285,-1.19646 z"
         id="path869"
         inkscape:connector-curvature="0" />
    </g>
  </g>
</svg>
