<?xml version="1.0" encoding="UTF-8"?>
<svg width="60mm" height="60mm" version="1.1" viewBox="0 0 60 60" xmlns="http://www.w3.org/2000/svg">
 <g transform="translate(-.12227 3.1328)">
  <path d="m29.22 16.833c-1.9771-0.3074-3.7359-1.5727-4.5827-3.2968-0.52962-1.0783-0.68675-1.7265-0.68974-2.8452-3e-3 -1.1162 0.15068-1.7476 0.69535-2.8569 0.33428-0.68084 0.52688-0.9442 1.1186-1.5295 0.57627-0.57008 0.87127-0.78395 1.5224-1.1037 1.0808-0.53081 1.725-0.68639 2.8421-0.68639 1.1178 0 1.7612 0.15557 2.8452 0.68796 0.66297 0.32561 0.94148 0.52892 1.528 1.1154 0.5865 0.5865 0.78981 0.86501 1.1154 1.528 0.53239 1.084 0.68796 1.7274 0.68796 2.8452 0 1.1178-0.15557 1.7612-0.68796 2.8452-0.32561 0.66297-0.52892 0.94148-1.1154 1.528-1.1126 1.1126-2.4574 1.7126-4.0498 1.8069-0.39215 0.02323-0.94535 0.0061-1.2293-0.03807z" style="stroke-width:.086574"/>
  <path d="m20.257 47.364v-1.4201l1.9263-0.03946c2.1474-0.04399 2.4234-0.09877 2.9296-0.5814 0.62304-0.59405 0.59831-0.17531 0.59777-10.125-3.27e-4 -6.2373-0.02906-8.9827-0.09654-9.2257-0.1334-0.48051-0.69533-1.0135-1.3086-1.2411-0.65421-0.24283-1.9091-0.35274-3.3776-0.29582l-1.1904 0.04614v-2.7949h0.51694c0.60916 0 14.589-0.49285 15.693-0.55324l0.75631-0.04138 0.02287 11.79 0.02284 11.79 0.19051 0.30631c0.43026 0.69177 1.3696 0.94529 3.5105 0.94751l1.4501 0.0016v2.8569h-21.643z" style="stroke-width:.086574"/>
 </g>
</svg>
