<?xml version="1.0" encoding="UTF-8" standalone="no"?>
<svg
   xmlns:dc="http://purl.org/dc/elements/1.1/"
   xmlns:cc="http://creativecommons.org/ns#"
   xmlns:rdf="http://www.w3.org/1999/02/22-rdf-syntax-ns#"
   xmlns:svg="http://www.w3.org/2000/svg"
   xmlns="http://www.w3.org/2000/svg"
   xmlns:sodipodi="http://sodipodi.sourceforge.net/DTD/sodipodi-0.dtd"
   xmlns:inkscape="http://www.inkscape.org/namespaces/inkscape"
   inkscape:version="1.0beta2 (4377acc, 2020-03-27)"
   inkscape:export-ydpi="400"
   inkscape:export-xdpi="400"
   inkscape:export-filename="C:\Instalados\xampp\htdocs\Gazetteer\icons\info.png"
   sodipodi:docname="weather.svg"
   id="svg8"
   version="1.1"
   viewBox="0 0 6 6"
   height="6mm"
   width="6mm">
  <defs
     id="defs2" />
  <sodipodi:namedview
     inkscape:window-maximized="1"
     inkscape:window-y="-11"
     inkscape:window-x="-11"
     inkscape:window-height="986"
     inkscape:window-width="1920"
     showgrid="false"
     inkscape:document-rotation="0"
     inkscape:current-layer="layer1"
     inkscape:document-units="mm"
     inkscape:cy="14.003063"
     inkscape:cx="-7.8236037"
     inkscape:zoom="6.5247859"
     inkscape:pageshadow="2"
     inkscape:pageopacity="0.0"
     borderopacity="1.0"
     bordercolor="#666666"
     pagecolor="#ffffff"
     id="base" />
  <metadata
     id="metadata5">
    <rdf:RDF>
      <cc:Work
         rdf:about="">
        <dc:format>image/svg+xml</dc:format>
        <dc:type
           rdf:resource="http://purl.org/dc/dcmitype/StillImage" />
        <dc:title></dc:title>
      </cc:Work>
    </rdf:RDF>
  </metadata>
  <g
     id="layer1"
     inkscape:groupmode="layer"
     inkscape:label="Layer 1">
    <path
       style="fill:#000000;stroke-width:0.0147211"
       d="m 1.8907593,5.7139478 c -0.01214,-0.00442 -0.0403,-0.025008 -0.06256,-0.045755 -0.0319,-0.029719 -0.04048,-0.050991 -0.04048,-0.1002821 0,-0.055012 0.01952,-0.091986 0.161753,-0.3063885 l 0.161745,-0.2438268 h -0.09455 c -0.160114,0 -0.228956,-0.047032 -0.228956,-0.156418 0,-0.054965 0.01949,-0.09192 0.160905,-0.3050873 l 0.160903,-0.242547 -0.51789,-0.00596 c -0.48189,-0.00554 -0.524541,-0.00816 -0.61357701,-0.037692 -0.282304,-0.093632 -0.507773,-0.3289672 -0.581846,-0.6073054 -0.01175,-0.044164 -0.02145,-0.1445454 -0.02154,-0.2230689 -3.21e-4,-0.2524758 0.09426,-0.4662858 0.280977,-0.6352535 C 0.81537629,2.6598116 1.0068603,2.5887144 1.2364383,2.5887144 h 0.134427 l 0.01839,-0.062564 c 0.06651,-0.2262961 0.273287,-0.4990608 0.489771,-0.6460732 0.208491,-0.1415834 0.483879,-0.2328742 0.703823,-0.2333178 l 0.09588,-1.928e-4 0.06285,-0.080477 c 0.07531,-0.096422 0.197503,-0.1930282 0.344347,-0.2722347 0.266412,-0.1437009 0.648634,-0.1582519 0.928587,-0.035351 0.446492,0.196013 0.712307,0.6494173 0.658613,1.1234056 -0.0129,0.1138786 -0.05583,0.278021 -0.089,0.3402931 -0.0092,0.017201 0.01294,0.049333 0.08677,0.1261446 0.164914,0.171586 0.243713,0.3692504 0.242742,0.6089118 -0.0015,0.3772683 -0.244062,0.6954369 -0.623339,0.8177358 -0.06846,0.022077 -0.153178,0.027093 -0.548611,0.03249 l -0.467645,0.00638 -0.04391,0.063824 c -0.02415,0.035104 -0.04391,0.070912 -0.04391,0.079574 0,0.00978 0.04174,0.015748 0.110175,0.015748 0.100756,0 0.114259,0.00364 0.157917,0.042657 0.03869,0.034572 0.04774,0.053756 0.04774,0.101224 0,0.049716 -0.02331,0.093801 -0.154237,0.2916894 -0.183218,0.2769248 -0.222821,0.3248662 -0.278457,0.3370863 -0.09137,0.020069 -0.192282,-0.063577 -0.192282,-0.1593909 0,-0.019756 0.03962,-0.096268 0.08805,-0.1700239 l 0.08805,-0.1340966 h -0.09446 c -0.159476,0 -0.228864,-0.047133 -0.228864,-0.1554586 0,-0.048661 0.01483,-0.084368 0.07068,-0.1701964 0.03887,-0.059739 0.0757,-0.1168977 0.08184,-0.1270183 0.0087,-0.014377 -0.03329,-0.018322 -0.192129,-0.018031 l -0.203284,3.969e-4 -0.121448,0.1835599 c -0.0668,0.1009582 -0.121449,0.190222 -0.121449,0.1983648 0,0.00861 0.04612,0.014806 0.110176,0.014806 0.100755,0 0.114258,0.00364 0.157917,0.042656 0.03874,0.034617 0.04774,0.053732 0.04774,0.1014185 0,0.051546 -0.03159,0.1062392 -0.257284,0.4453861 -0.207139,0.311268 -0.266517,0.3904904 -0.304656,0.4064588 -0.04977,0.020841 -0.07085,0.022704 -0.1072,0.00948 z m 2.270332,-1.7334925 c 0.172251,-0.036504 0.308466,-0.14155 0.388586,-0.2996669 0.03833,-0.075639 0.0424,-0.09784 0.0424,-0.2311138 0,-0.1365723 -0.0035,-0.154605 -0.04784,-0.2447025 C 4.4536873,3.020897 4.2889783,2.9127496 4.0808103,2.9006989 l -0.114379,-0.00662 v 0.090949 c 0,0.1067568 -0.02704,0.1682002 -0.08785,0.1996462 -0.05169,0.026731 -0.08932,0.028172 -0.139433,0.00534 -0.07204,-0.032824 -0.0869,-0.077607 -0.09691,-0.2921518 -0.01013,-0.2171912 -0.03333,-0.2976497 -0.1343,-0.4658709 C 3.4414683,2.3212466 3.2847193,2.1668267 3.1697953,2.098866 2.9468383,1.9670192 2.6498843,1.9221027 2.4051833,1.9832124 c -0.197376,0.049291 -0.3251,0.1215454 -0.471502,0.2667306 -0.209224,0.2074849 -0.293181,0.3992483 -0.293181,0.6696461 0,0.1702411 -0.01537,0.2210014 -0.0797,0.2631469 -0.06764,0.044319 -0.163595,0.022759 -0.209324,-0.047032 -0.01413,-0.021563 -0.02754,-0.080399 -0.03175,-0.139351 l -0.0073,-0.102031 -0.112276,0.0065 C 0.99626729,2.912625 0.81701029,3.0337995 0.73056129,3.2182545 c -0.03425,0.073074 -0.03957,0.1032577 -0.03957,0.2242871 0,0.1224018 0.0052,0.1510733 0.04157,0.2298017 0.07113,0.1539039 0.218465,0.2716795 0.38533901,0.3080226 0.1358,0.029575 2.903673,0.029658 3.04319,1.067e-4 z m 0.173433,-1.4926554 c 0.03665,-0.1167429 0.03939,-0.3160155 0.0059,-0.4300492 C 4.2149413,1.6305399 3.7712213,1.3880438 3.3561663,1.519848 3.2439293,1.55549 3.1245593,1.6221511 3.0750923,1.6768113 c -0.02641,0.02918 -0.02626,0.030115 0.0059,0.038534 0.05969,0.01561 0.235828,0.105514 0.323924,0.1653397 0.207152,0.140674 0.398403,0.3875158 0.485847,0.6270666 l 0.03224,0.088326 0.12107,-0.00444 c 0.06659,-0.00243 0.147568,0.00132 0.179955,0.00838 0.06962,0.015158 0.07088,0.013869 0.110474,-0.1122188 z m 0.744341,-0.089666 c -0.08014,-0.052828 -0.103824,-0.1391646 -0.05687,-0.2072898 0.04765,-0.069137 0.05988,-0.072241 0.286607,-0.072733 0.20987,-4.604e-4 0.217262,5.9e-4 0.260216,0.036732 0.05636,0.047422 0.07036,0.1081232 0.03979,0.1725316 -0.04034,0.085007 -0.08352,0.099423 -0.297472,0.099313 -0.162117,-8.89e-5 -0.195264,-0.00416 -0.232274,-0.028555 z M 2.2933413,1.2012562 C 2.1479573,1.0636321 2.0968543,0.99324416 2.0968543,0.93061996 c 0,-0.072145 0.06354,-0.1373555 0.144417,-0.1482004 l 0.06345,-0.00851 0.161045,0.1610449 c 0.152466,0.15246664 0.161045,0.16425554 0.161045,0.22131664 0,0.090293 -0.06197,0.1517119 -0.153073,0.1517119 -0.0638,0 -0.07407,-0.00607 -0.180399,-0.1067278 z m 2.3115,0.080638 c -0.04278,-0.034651 -0.06429,-0.080559 -0.06429,-0.1372058 0,-0.040458 0.02234,-0.070072 0.151368,-0.20067364 0.133952,-0.1355826 0.158464,-0.1541634 0.213046,-0.1614839 0.05603,-0.00752 0.06643,-0.00352 0.11361,0.043662 0.05756,0.057563 0.06729,0.1149835 0.03126,0.18464164 -0.01137,0.021986 -0.0807,0.097838 -0.15406,0.1685613 -0.125721,0.1211958 -0.137015,0.1285684 -0.196464,0.12826 -0.03741,-1.928e-4 -0.07585,-0.010678 -0.09448,-0.025762 z m -1.09121,-0.44977294 c -0.06609,-0.036702 -0.08342,-0.082016 -0.08952,-0.2340572 -0.0032,-0.078911 -0.0011,-0.1744587 0.0046,-0.2123272 0.02172,-0.14483583 0.157996,-0.20188373 0.26151,-0.10947303 l 0.04807,0.042919 0.0049,0.19403743 c 0.0032,0.1291501 -0.0011,0.2084589 -0.01299,0.2371633 -0.03564,0.086048 -0.138701,0.1249538 -0.216516,0.081738 z"
       id="path984"
       inkscape:connector-curvature="0" />
  </g>
</svg>
